<svg width="12" height="12" viewBox="0 0 12 12" fill="none" xmlns="http://www.w3.org/2000/svg">
<g id="Icon Right" clip-path="url(#clip0_22460_30108)">
<path id="Vector" d="M10.4595 3.77508C10.3526 3.61769 10.2076 3.48364 10.0326 3.38637L6.63387 1.49682C6.24158 1.27873 5.75826 1.27873 5.36597 1.49682L1.96721 3.38637C1.57491 3.60446 1.33325 4.00752 1.33325 4.44371V8.2228C1.33325 8.65899 1.57491 9.06204 1.96721 9.28014L5.36597 11.1697C5.75826 11.3878 6.24158 11.3878 6.63387 11.1697L10.0326 9.28014C10.4249 9.06204 10.6666 8.65899 10.6666 8.2228V6.33325M10.4595 3.77508C10.5924 3.97057 10.6666 4.20206 10.6666 4.44371V6.33325M10.4595 3.77508L6.40488 6.2169M10.6666 6.33325L6.63387 8.65872" stroke="white" stroke-linecap="round" stroke-linejoin="round"/>
</g>
<defs>
<clipPath id="clip0_22460_30108">
<rect width="12" height="12" fill="white"/>
</clipPath>
</defs>
</svg>
